# xmcd
#
# Track frame offsets:
#	150
#	23100
#	30508
#	46615
#	84123
#	125124
#	162827
#	173108
#	176416
#	222697
#
# Disc length: 3296 seconds
#
# Revision: 1
# Processed by: cddbd v1.5.2PL0 Copyright (c) Steve Scherf et al.
# Submitted via: audiograbber 1.83.01
#
DISCID=780cde0a
DTITLE=Grateful Dead - 87-11-07 Henry J Kaiser Convention Centre, Oakland Ca
DYEAR=1900
DGENRE=
TTITLE0=Space
TTITLE1=Jam
TTITLE2=I Need A Miracle
TTITLE3=Black Peter
TTITLE4=Throwing Stones
TTITLE5=Not Fade Away
TTITLE6=Crowd
TTITLE7=Not Fade Away
TTITLE8=Knocking On Heaven's Door
TTITLE9=One More Saturday Night
EXTD=
EXTT0=
EXTT1=
EXTT2=
EXTT3=
EXTT4=
EXTT5=
EXTT6=
EXTT7=
EXTT8=
EXTT9=
PLAYORDER=
